<?xml version="1.0" encoding="utf-8"?>
<svg xmlns="http://www.w3.org/2000/svg" viewBox="33.735 160.241 407.831 115.663">
  <defs>
    <g/>
    <clipPath id="2e12cd0984">
      <path d="M 405.210938 314.707031 L 1034.710938 314.707031 L 1034.710938 495.378906 L 405.210938 495.378906 Z M 405.210938 314.707031 " clip-rule="nonzero"/>
    </clipPath>
    <clipPath id="30b4d1451d">
      <path d="M 443.457031 314.707031 L 996.535156 314.707031 C 1017.660156 314.707031 1034.785156 331.832031 1034.785156 352.957031 L 1034.785156 457.042969 C 1034.785156 478.167969 1017.660156 495.292969 996.535156 495.292969 L 443.457031 495.292969 C 422.335938 495.292969 405.210938 478.167969 405.210938 457.042969 L 405.210938 352.957031 C 405.210938 331.832031 422.335938 314.707031 443.457031 314.707031 Z M 443.457031 314.707031 " clip-rule="nonzero"/>
    </clipPath>
  </defs>
  <g clip-path="url(#2e12cd0984)" transform="matrix(0.643052, 0, 0, 0.626383, -225.321671, -35.612789)" style="">
    <g clip-path="url(#30b4d1451d)">
      <path stroke-linecap="butt" transform="matrix(0.357063, 0, 0, 0.357063, 405.209458, 314.706419)" fill="none" stroke-linejoin="miter" d="M 107.117028 0.00171365 L 1656.080268 0.00171365 C 1715.243426 0.00171365 1763.204093 47.96238 1763.204093 107.125538 L 1763.204093 398.630994 C 1763.204093 457.794152 1715.243426 505.754818 1656.080268 505.754818 L 107.117028 505.754818 C 47.96481 505.754818 0.00414398 457.794152 0.00414398 398.630994 L 0.00414398 107.125538 C 0.00414398 47.96238 47.96481 0.00171365 107.117028 0.00171365 Z M 107.117028 0.00171365 " stroke="#7cb7f4" stroke-width="42.009342" stroke-opacity="1" stroke-miterlimit="4"/>
    </g>
  </g>
  <g fill="#7cb7f4" fill-opacity="1" transform="matrix(0.643052, 0, 0, 0.626383, -225.321671, -35.612789)" style="">
    <g transform="translate(445.569394, 431.620155)">
      <g>
        <path d="M 49.109375 -42.25 L 53.578125 -32.640625 L 52.9375 -5.484375 L 47.1875 -0.359375 L 5.296875 0 L 1.828125 -7.21875 L 3.5625 -24.96875 L 19.296875 -24.875 L 20.578125 -16.734375 L 34.5625 -17 L 35.015625 -28.53125 L 6.765625 -31.734375 L 2.65625 -36.390625 L 3.109375 -67.03125 L 6.671875 -71.328125 L 40.234375 -73.0625 L 52.03125 -69.671875 L 52.84375 -52.390625 L 49.46875 -49.46875 L 36.671875 -48.828125 L 34.375 -56.234375 L 22.21875 -55.234375 L 21.21875 -44.71875 Z M 49.109375 -42.25 "/>
      </g>
    </g>
  </g>
  <g fill="#7cb7f4" fill-opacity="1" transform="matrix(0.643052, 0, 0, 0.626383, -225.321671, -35.612789)" style="">
    <g transform="translate(500.984236, 431.620155)">
      <g>
        <path d="M 48.828125 -53.40625 L 54.5 -46.265625 L 53.859375 -0.1875 L 34.921875 -0.546875 L 34.203125 -36.125 L 21.765625 -35.296875 L 22.3125 -1.1875 L 2.109375 0.09375 L 1.828125 -73.0625 L 20.9375 -71.59375 L 21.484375 -51.84375 Z M 48.828125 -53.40625 "/>
      </g>
    </g>
  </g>
  <g fill="#7cb7f4" fill-opacity="1" transform="matrix(0.643052, 0, 0, 0.626383, -225.321671, -35.612789)" style="">
    <g transform="translate(557.313512, 431.620155)">
      <g>
        <path d="M 53.484375 -49.734375 L 54.125 0 L 41.609375 0.09375 L 39.6875 -3.109375 L 37.578125 0 L 8.6875 -0.28125 L 1.828125 -5.296875 L 3.46875 -29.078125 L 8.78125 -32.734375 L 34.375 -33.1875 L 34.65625 -39.40625 L 21.671875 -40.328125 L 20.109375 -36.9375 L 3.390625 -38.03125 L 2.46875 -44.625 L 7.21875 -52.671875 L 47.453125 -53.21875 Z M 35.015625 -14.265625 L 34.921875 -22.671875 L 21.3125 -22.5 L 21.859375 -14.8125 Z M 35.015625 -14.265625 "/>
      </g>
    </g>
  </g>
  <g fill="#7cb7f4" fill-opacity="1" transform="matrix(0.643052, 0, 0, 0.626383, -225.321671, -35.612789)" style="">
    <g transform="translate(613.27701, 431.620155)">
      <g>
        <path d="M 46.078125 -52.765625 L 50.84375 -46.546875 L 50.5625 -30.078125 L 47.828125 -25.609375 L 33.46875 -25.875 L 32.1875 -36.765625 L 21.671875 -37.3125 L 21.671875 -0.1875 L 2.5625 -1.1875 L 1.828125 -53.3125 L 13.265625 -53.21875 L 15 -50.203125 L 17.1875 -52.671875 Z M 46.078125 -52.765625 "/>
      </g>
    </g>
  </g>
  <g fill="#7cb7f4" fill-opacity="1" transform="matrix(0.643052, 0, 0, 0.626383, -225.321671, -35.612789)" style="">
    <g transform="translate(665.948529, 431.620155)">
      <g>
        <path d="M 35.65625 -16.375 L 52.390625 -15.265625 L 53.3125 -8.6875 L 48.546875 -0.640625 L 8.328125 -0.09375 L 2.28125 -3.65625 L 1.828125 -47.640625 L 7.5 -53.578125 L 47.09375 -52.765625 L 53.953125 -48.09375 L 52.296875 -22.953125 L 46.90625 -19.296875 L 21.390625 -20.03125 L 21.125 -13.90625 L 34.109375 -13.078125 Z M 34.46875 -29.34375 L 33.921875 -38.59375 L 20.75 -39.140625 L 20.84375 -30.546875 Z M 34.46875 -29.34375 "/>
      </g>
    </g>
  </g>
  <g fill="#7cb7f4" fill-opacity="1" transform="matrix(0.643052, 0, 0, 0.626383, -225.321671, -35.612789)" style="">
    <g transform="translate(721.729128, 431.620155)">
      <g>
        <path d="M 35.5625 -22.578125 L 52.578125 -21.390625 L 53.03125 -6.765625 L 49.65625 -0.1875 L 8.40625 0.09375 L 2.28125 -3.203125 L 1.828125 -67.109375 L 4.578125 -73.15625 L 48.46875 -72.59375 L 53.953125 -67.75 L 52.671875 -48 L 35.390625 -48 L 33.828125 -58.34375 L 21.03125 -58.890625 L 21.859375 -13.53125 L 34.015625 -12.625 Z M 35.5625 -22.578125 "/>
      </g>
    </g>
  </g>
  <g fill="#7cb7f4" fill-opacity="1" transform="matrix(0.643052, 0, 0, 0.626383, -225.321671, -35.612789)" style="">
    <g transform="translate(777.509727, 431.620155)">
      <g>
        <path d="M 48.640625 -52.765625 L 53.40625 -46.8125 L 52.9375 -6.859375 L 49.375 -0.359375 L 8.40625 -0.09375 L 2.28125 -3.296875 L 1.828125 -47.453125 L 5.484375 -53.578125 Z M 34.015625 -38.3125 L 21.21875 -38.859375 L 21.578125 -14.625 L 33.734375 -13.625 Z M 34.015625 -38.3125 "/>
      </g>
    </g>
  </g>
  <g fill="#7cb7f4" fill-opacity="1" transform="matrix(0.643052, 0, 0, 0.626383, -225.321671, -35.612789)" style="">
    <g transform="translate(832.74169, 431.620155)">
      <g>
        <path d="M 38.3125 -52.84375 L 53.40625 -53.578125 L 53.125 -0.1875 L 40.96875 -0.1875 L 39.046875 -2.828125 L 37.3125 -0.1875 L 8.328125 0 L 2.28125 -3.5625 L 1.828125 -53.578125 L 16.375 -53.03125 L 20.203125 -48.28125 L 22.671875 -15.734375 L 33.46875 -14.359375 L 34.84375 -48.375 Z M 38.3125 -52.84375 "/>
      </g>
    </g>
  </g>
  <g fill="#7cb7f4" fill-opacity="1" transform="matrix(0.643052, 0, 0, 0.626383, -225.321671, -35.612789)" style="">
    <g transform="translate(887.973653, 431.620155)">
      <g>
        <path d="M 49.375 -53.578125 L 53.03125 -50.015625 L 52.84375 -2.5625 L 48.28125 -0.09375 L 33.921875 -0.359375 L 33.921875 -37.125 L 21.125 -36.765625 L 21.390625 -1.46875 L 2.109375 -0.1875 L 1.828125 -52.484375 L 13.53125 -52.765625 L 15.171875 -50.015625 L 17.46875 -52.203125 Z M 49.375 -53.578125 "/>
      </g>
    </g>
  </g>
  <g fill="#7cb7f4" fill-opacity="1" transform="matrix(0.643052, 0, 0, 0.626383, -225.321671, -35.612789)" style="">
    <g transform="translate(942.839819, 431.620155)">
      <g>
        <path d="M 49.734375 -18.921875 L 49.734375 -7.953125 L 45.078125 -0.546875 L 8.5 0 L 5.03125 -5.859375 L 5.390625 -39.234375 L 1.921875 -40.046875 L 1.828125 -50.84375 L 3.84375 -52.9375 L 6.484375 -53.125 L 7.5 -66.296875 L 21.671875 -66.015625 L 23.859375 -63.640625 L 23.78125 -53.125 L 43.609375 -52.671875 L 45.90625 -49.46875 L 45.71875 -38.859375 L 43.34375 -37.125 L 24.046875 -37.671875 L 23.21875 -14.8125 L 31.90625 -14.453125 L 34.015625 -22.953125 L 47.453125 -22.125 Z M 49.734375 -18.921875 "/>
      </g>
    </g>
  </g>
</svg>